<?xml version="1.0" ?><svg id="Layer_1" style="enable-background:new 0 0 48 48;" version="1.1" viewBox="0 0 48 48" xml:space="preserve" xmlns="http://www.w3.org/2000/svg" xmlns:xlink="http://www.w3.org/1999/xlink"><style type="text/css">
	.st0{fill:#010101;}
</style><path class="st0" d="M24.049,10.108c-0.032-0.013-0.064-0.018-0.098-0.024c-2.461-0.568-5.033-0.043-7.064,1.38  c-0.058,0.025-0.108,0.063-0.15,0.109c-1.031,0.755-1.918,1.737-2.56,2.936c-2.219,4.144-0.777,9.276,3.187,11.696l-0.689,1.287  c-0.286-0.17-0.572-0.345-0.826-0.531c-0.51-0.398-1.271-0.333-1.737,0.166c-0.25,0.272-0.373,0.64-0.337,1.008  c0.036,0.372,0.229,0.712,0.53,0.933c0.396,0.29,0.786,0.545,1.194,0.78c1.068,0.616,2.214,1.063,3.4,1.348V35.5H17.72  c-0.656,0-1.189,0.539-1.189,1.2v1.164c-1.671,0.097-3.005,1.474-3.005,3.169c0,0.276,0.224,0.5,0.5,0.5h12.75  c0.276,0,0.5-0.224,0.5-0.5c0-1.692-1.328-3.066-2.995-3.168V36.7c0-0.662-0.538-1.2-1.2-1.2H21.9v-3.935  c0.027,0,0.054,0.002,0.081,0.002c4.025,0,7.806-1.841,10.207-5c2.321-3.056,3.19-6.93,2.384-10.63  c-0.807-3.701-3.182-6.848-6.516-8.633c-0.552-0.297-1.106-0.545-1.698-0.761c-0.347-0.123-0.732-0.095-1.056,0.077  c-0.325,0.172-0.564,0.474-0.656,0.828c-0.005,0.017-0.009,0.036-0.011,0.056c-0.137,0.642,0.216,1.271,0.854,1.511  c0.291,0.105,0.587,0.234,0.883,0.373l-0.693,1.294C25.147,10.433,24.602,10.242,24.049,10.108z M31.899,15.998  c0.746,2.768,0.326,5.643-1.185,8.093c-2.737,4.439-8.506,6.079-13.159,3.874l0.693-1.293c1.194,0.555,2.451,0.836,3.699,0.836  c1.247,0,2.475-0.274,3.608-0.778c0.069-0.019,0.134-0.049,0.188-0.094c1.649-0.781,3.079-2.06,4.004-3.788c0,0,0,0,0,0  c0.641-1.196,0.966-2.475,1.025-3.749c0.007-0.039,0.008-0.077,0.005-0.118c0.101-3.096-1.433-6.13-4.217-7.829l0.691-1.29  C29.549,11.236,31.197,13.39,31.899,15.998z M29.791,18.676c-1.888,0.739-2.75,1.481-2.537,2.207  c0.021,0.137-0.333,0.533-0.799,0.86c-1.899-1.056-3.561-2.234-3.865-2.738c1.101-0.901,0.963-3.236,0.724-5.563  c-0.103-1.011,0.435-1.899,0.73-2.303c0.55,0.152,1.093,0.356,1.616,0.637C28.287,13.182,29.785,15.885,29.791,18.676z   M21.976,10.849c0.338,0,0.677,0.026,1.015,0.071c-0.368,0.601-0.783,1.539-0.671,2.628c0.128,1.243,0.427,4.153-0.407,4.716  c-0.245,0.165-0.378,0.423-0.364,0.707c0.054,1.113,2.961,2.855,4.69,3.794c0.074,0.041,0.156,0.061,0.238,0.061  c0.089,0,0.178-0.023,0.257-0.071c0.409-0.245,1.699-1.102,1.501-2.069c0.142-0.203,0.75-0.564,1.47-0.889  c-0.126,0.879-0.395,1.752-0.838,2.579v0c-0.733,1.369-1.821,2.426-3.086,3.13c-0.302-0.82-1.221-2.159-3.984-3.583  c-3.323-1.713-5.904-0.645-6.961-0.028c-0.578-1.285-0.808-2.713-0.643-4.134c0.698,0.19,1.932,0.472,3.165,0.472  c0.85,0,1.693-0.135,2.346-0.528c0.661-0.399,1.062-1.004,1.19-1.799c0.416-2.56-1.521-3.73-2.533-4.159  C19.476,11.169,20.713,10.849,21.976,10.849z M17.251,12.434c0.411,0.087,1.512,0.429,2.183,1.273  c0.443,0.558,0.603,1.244,0.474,2.038c-0.081,0.499-0.316,0.859-0.72,1.103c-1.195,0.723-3.577,0.275-4.813-0.072  c0.153-0.611,0.373-1.215,0.684-1.795C15.612,13.948,16.37,13.097,17.251,12.434z M15.304,22.781  c0.842-0.494,3.106-1.479,6.033,0.03c2.71,1.396,3.373,2.615,3.537,3.13c-2.076,0.83-4.489,0.776-6.608-0.36  C17.001,24.904,16.005,23.924,15.304,22.781z M26.218,40.534H14.583c0.227-0.966,1.096-1.688,2.13-1.688h0.298  c0.007,0,0.013,0.004,0.019,0.004h6.75c0.007,0,0.013-0.004,0.019-0.004h0.288C25.122,38.846,25.991,39.568,26.218,40.534z   M23.28,36.7v1.146h-5.75V36.7c0-0.112,0.083-0.2,0.189-0.2H19.4h2h1.68C23.188,36.5,23.28,36.592,23.28,36.7z M19.9,35.5v-4.102  c0.329,0.055,0.662,0.094,1,0.118V35.5H19.9z M25.616,7.702c0.002-0.008,0.003-0.017,0.005-0.026  c0.034-0.099,0.106-0.15,0.149-0.172c0.046-0.023,0.14-0.058,0.249-0.02c0.543,0.198,1.055,0.427,1.564,0.701  c3.076,1.646,5.267,4.55,6.012,7.964c0.744,3.414-0.06,6.99-2.204,9.812c-2.32,3.055-6.046,4.782-9.972,4.593  c-0.007,0-0.012-0.004-0.019-0.004c-0.004,0-0.006,0.002-0.01,0.002c-0.646-0.021-1.278-0.099-1.888-0.238  c-1.232-0.254-2.41-0.703-3.503-1.333c-0.376-0.217-0.737-0.453-1.103-0.72c-0.071-0.052-0.117-0.134-0.126-0.224  c-0.005-0.051-0.001-0.148,0.074-0.231c0.048-0.051,0.128-0.112,0.235-0.112c0.057,0,0.105,0.017,0.164,0.063  c0.364,0.268,0.752,0.518,1.149,0.742c0.062,0.035,0.127,0.062,0.19,0.096c0.017,0.012,0.028,0.029,0.047,0.039  c0.019,0.01,0.041,0.008,0.06,0.015c5.175,2.737,11.785,0.978,14.875-4.032c1.656-2.688,2.117-5.841,1.299-8.878  c-0.819-3.038-2.797-5.529-5.573-7.017c-0.489-0.255-0.98-0.473-1.456-0.645C25.668,8.013,25.577,7.859,25.616,7.702z"/></svg>