<?xml version="1.0" ?><svg id="Layer_1" style="enable-background:new 0 0 48 48;" version="1.1" viewBox="0 0 48 48" xml:space="preserve" xmlns="http://www.w3.org/2000/svg" xmlns:xlink="http://www.w3.org/1999/xlink"><style type="text/css">
	.st0{fill:#010101;}
</style><path class="st0" d="M40.973,26.083H39.78c-0.24-3.863-3.219-6.99-7.017-7.456c1.88-1.135,3.144-3.192,3.144-5.543  c0-3.571-2.905-6.477-6.477-6.477s-6.478,2.906-6.478,6.477c0,2.352,1.264,4.408,3.145,5.543c-3.799,0.466-6.777,3.593-7.017,7.456  H9.75V23.25c0-3.851,3.02-7.002,6.816-7.228c0.216,0.859,0.989,1.499,1.914,1.499h1.229c1.092,0,1.979-0.888,1.979-1.979  s-0.888-1.979-1.979-1.979h-1.229c-0.911,0-1.671,0.621-1.901,1.459c-4.352,0.222-7.828,3.822-7.828,8.229v2.833H6.973  c-0.276,0-0.5,0.224-0.5,0.5v5.167c0,0.276,0.224,0.5,0.5,0.5h2.833v8.917c0,0.276,0.224,0.5,0.5,0.5h27.333  c0.276,0,0.5-0.224,0.5-0.5V32.25h2.834c0.276,0,0.5-0.224,0.5-0.5v-5.167C41.473,26.307,41.249,26.083,40.973,26.083z   M18.479,14.563h1.229c0.54,0,0.979,0.439,0.979,0.979s-0.439,0.979-0.979,0.979h-1.229c-0.54,0-0.979-0.439-0.979-0.979  S17.939,14.563,18.479,14.563z M23.953,13.083c0-3.02,2.457-5.477,5.478-5.477c3.02,0,5.477,2.457,5.477,5.477  s-2.457,5.477-5.477,5.477C26.41,18.561,23.953,16.104,23.953,13.083z M27.078,19.561h4.704c3.705,0,6.749,2.883,7.006,6.522H20.073  C20.33,22.443,23.374,19.561,27.078,19.561z M37.139,40.667H10.806V32.25h26.333V40.667z M40.473,31.25h-2.834H10.306H7.473v-4.167  h12.083h19.75h1.167V31.25z"/></svg>